<svg version="1.1" id="Layer_1" xmlns="http://www.w3.org/2000/svg" xmlns:xlink="http://www.w3.org/1999/xlink" x="0px" y="0px"
	 width="100%" viewBox="0 0 576 576" enable-background="new 0 0 576 576" xml:space="preserve">
<path fill="#000000" opacity="1.000000" stroke="none" 
	d="
M96.463181,577.000000 
	C97.939491,555.118591 100.703949,533.345764 104.640709,511.729340 
	C105.950729,504.536072 107.545639,497.387634 108.627342,490.161377 
	C110.861824,475.234039 119.735947,464.121033 129.176590,453.235565 
	C144.660294,435.382324 158.717926,416.314911 175.114029,399.237061 
	C176.856903,397.421722 178.448151,395.515167 179.386612,393.139496 
	C180.143570,391.223206 181.280960,389.471283 183.134369,388.605530 
	C194.065079,383.499603 197.710144,373.068970 201.577042,363.015778 
	C206.939178,349.075287 206.692001,334.687531 203.662399,320.254822 
	C202.943314,316.829193 201.890564,314.007385 197.323166,314.122345 
	C186.704269,314.389496 178.871857,309.010315 173.047409,300.677704 
	C159.244293,280.930603 162.204254,251.292679 179.556870,236.299271 
	C182.088501,234.111832 181.901733,231.882675 181.032928,229.148865 
	C177.299240,217.400162 174.763245,205.311523 171.339355,193.499771 
	C167.175858,179.136459 171.031647,166.944977 178.878006,155.304932 
	C182.242081,150.314346 186.271362,145.865799 191.018738,142.105164 
	C192.686432,140.784103 194.434982,139.500549 195.448837,137.152359 
	C191.164307,135.018646 186.628616,135.028397 182.299896,134.191666 
	C177.625580,133.288116 173.719543,131.408051 172.371887,126.318588 
	C171.728134,123.887482 172.010818,121.610764 174.052399,119.957466 
	C175.915894,118.448364 177.872162,119.274437 179.660522,120.256721 
	C185.495514,123.461655 191.164368,126.971817 197.449203,129.311188 
	C204.112015,131.791245 204.641556,131.372360 204.791229,124.049713 
	C204.947662,116.396339 205.389343,108.745918 206.902100,101.217201 
	C207.484070,98.320755 207.919067,94.468346 212.052490,95.320145 
	C216.079620,96.150040 217.203568,99.652336 216.592224,103.571396 
	C215.823807,108.497566 214.983139,113.412697 214.249619,118.343880 
	C214.081940,119.471176 214.224915,120.644676 214.818970,122.023636 
	C215.657700,119.538307 216.373169,117.002823 217.359924,114.577721 
	C219.666153,108.909821 223.001251,107.442764 228.701111,109.622276 
	C232.353012,111.018707 236.221130,110.967079 239.982605,111.611938 
	C242.495789,112.042801 243.992538,110.665398 245.082047,108.502716 
	C246.504364,105.679390 247.925552,102.825554 249.678024,100.206154 
	C251.815582,97.011147 254.116272,93.789528 258.855591,94.744286 
	C260.110809,94.997162 261.086884,94.189896 261.886261,93.299828 
	C273.954681,79.861931 288.778107,79.443108 304.503571,84.680328 
	C315.317688,88.281883 326.444153,91.299820 337.636993,91.126633 
	C344.449951,91.021210 352.194214,93.579353 358.759064,88.098160 
	C362.027771,85.369026 366.762512,84.879089 371.011932,84.102562 
	C377.707520,82.879028 379.956085,85.753632 377.553162,92.085854 
	C377.266968,92.839989 377.112976,93.644302 376.898285,94.423409 
	C379.018616,96.629593 381.907074,95.186676 384.069885,96.298645 
	C397.428223,103.166580 412.560852,105.465599 425.844971,112.435104 
	C434.280090,116.860588 439.937622,124.216087 443.757568,132.687729 
	C449.564240,145.565262 452.849548,159.068817 451.684296,173.394150 
	C451.240631,178.847961 455.144318,181.762817 458.880402,184.608047 
	C462.456299,187.331268 466.165588,189.878616 469.796326,192.530579 
	C477.720093,198.318344 482.222046,206.498444 484.052734,215.753403 
	C487.257446,231.954529 480.406036,245.104279 469.252045,256.091064 
	C463.941803,261.321655 457.539948,265.607910 450.247375,267.811096 
	C443.491699,269.852020 441.091522,275.122711 439.454102,281.007263 
	C438.697601,283.725922 437.738678,284.451355 434.730103,284.533447 
	C427.196564,284.739044 423.726562,290.833435 421.165863,296.549835 
	C411.297791,318.578857 400.701141,340.288910 392.208588,362.936035 
	C389.025421,371.424622 386.466614,380.366577 379.754120,387.193970 
	C373.061615,394.001129 365.049652,397.931824 355.719971,399.426849 
	C354.054932,399.693634 352.010132,400.268433 351.424133,398.213928 
	C350.762299,395.893433 352.776764,395.081696 354.654602,394.679932 
	C362.959869,392.902893 370.704529,389.911865 376.494873,383.430237 
	C381.598145,377.717743 383.660278,370.298096 386.441864,363.405151 
	C396.539001,338.383728 406.780121,313.436646 419.028931,289.369568 
	C421.526215,284.462769 422.019196,279.215027 422.343719,273.866913 
	C422.656128,268.718414 423.280914,263.587799 423.543457,258.437866 
	C423.635132,256.639771 423.263153,254.545258 420.801788,254.374390 
	C417.947968,254.176270 418.315247,256.393646 418.231445,258.193756 
	C418.160522,259.717560 418.130280,261.396423 416.317902,261.852234 
	C414.295380,262.360901 413.334290,260.903320 412.567413,259.315491 
	C411.271362,256.631958 409.894196,253.985687 408.675934,251.267792 
	C408.327637,250.490692 408.086792,249.812088 407.275269,249.365280 
	C398.078796,244.302017 390.086121,237.498383 381.571442,231.451157 
	C380.228516,230.497391 378.887970,230.329956 377.419067,230.087860 
	C370.520386,228.950745 363.636810,227.721329 356.737152,226.590393 
	C350.105133,225.503357 345.336029,221.916122 342.895996,215.717010 
	C341.606140,212.439880 339.535156,211.548325 336.253387,210.876175 
	C322.740601,208.108627 309.711945,204.269791 301.213501,191.958862 
	C298.429169,187.925461 298.030151,183.349182 297.283447,178.811142 
	C292.019684,179.874359 287.439880,186.796738 288.436279,192.503601 
	C289.514404,198.678452 290.025146,200.496979 296.794525,201.229797 
	C305.639069,202.187256 314.429749,205.120865 320.292267,212.948837 
	C323.324280,216.997360 322.597015,218.916489 317.628571,220.263840 
	C314.939209,220.993134 312.303406,220.587875 309.723267,219.959000 
	C297.028015,216.864594 284.193115,215.193924 271.117126,216.188370 
	C264.014496,216.728531 256.955780,217.658401 250.202728,220.129715 
	C249.238007,220.482742 248.281067,220.699890 247.272842,219.683273 
	C246.931396,216.068802 251.661819,216.019882 252.296188,213.067108 
	C248.976257,210.272644 239.619614,210.513672 236.372513,213.451294 
	C233.457352,216.088623 233.581406,220.864075 236.749664,225.806213 
	C238.889664,229.144394 240.765457,233.004807 245.977646,230.783234 
	C246.344620,230.626816 247.070633,231.312744 247.712067,231.650330 
	C244.348526,239.426666 242.166702,247.226852 242.108780,255.595764 
	C242.074753,260.512756 238.563141,263.583649 234.545547,265.303528 
	C230.892334,266.867401 228.334442,263.609985 226.091202,261.298279 
	C221.892700,256.971588 218.429947,252.003174 216.096832,246.435455 
	C209.588150,230.903229 189.492981,229.556992 178.931061,243.255524 
	C167.162979,258.518372 166.859467,284.045197 178.303772,299.534271 
	C184.102615,307.382568 195.805527,312.972870 206.515396,306.847321 
	C209.339050,305.232300 210.949524,305.597260 211.767487,309.212341 
	C217.000931,332.342010 211.385956,353.931976 202.578186,375.052094 
	C201.379593,377.926147 199.571442,380.690948 197.500320,383.021973 
	C194.452820,386.451874 194.733292,389.389221 197.428223,392.768097 
	C205.614273,403.031616 215.960602,410.850006 226.242508,418.793365 
	C235.334793,425.817749 244.587662,432.617035 254.407150,438.556244 
	C262.373230,443.374451 270.734192,447.440704 280.128021,448.950684 
	C283.552124,449.501068 286.841248,450.844788 290.236481,451.634979 
	C293.284515,452.344421 295.108917,451.313477 294.878479,447.809265 
	C294.563568,443.020721 295.068146,438.253876 294.556274,433.405457 
	C293.844421,426.662720 296.769135,420.343292 299.057587,414.109711 
	C301.627716,407.108795 304.606110,400.257782 307.616791,392.823273 
	C296.667725,389.123474 286.269928,384.789093 275.794769,380.664276 
	C258.864777,373.997681 243.286530,365.483124 230.980759,351.680634 
	C225.319458,345.330750 222.658783,337.304321 218.227234,330.282440 
	C217.568710,329.238983 217.658951,327.946106 218.880356,327.216736 
	C220.063065,326.510437 221.284561,326.958496 222.001862,327.938721 
	C223.767532,330.351654 225.651398,332.746094 226.975143,335.403320 
	C235.193115,351.899475 248.945984,362.398010 265.083252,369.946564 
	C286.343506,379.891479 308.132507,388.527496 331.345215,392.911743 
	C334.765350,393.557709 338.281006,393.683777 341.739349,394.147980 
	C343.514709,394.386292 345.865631,394.470337 345.600952,397.006042 
	C345.346802,399.441223 343.042389,399.297943 341.236481,399.187744 
	C333.241211,398.699799 325.369110,397.407501 317.687653,395.117157 
	C315.283783,394.400391 313.224243,393.782349 311.964233,396.894989 
	C307.656006,407.537872 303.019409,418.068359 300.807495,429.419464 
	C299.522339,436.014618 302.285034,441.298889 307.531372,445.352234 
	C318.855957,454.101654 330.055847,463.034515 340.947083,472.314423 
	C347.408936,477.820312 354.769806,482.253937 360.463928,488.667053 
	C369.771667,499.150024 378.578186,509.773804 380.702515,524.488525 
	C381.368408,529.101196 384.397003,533.353516 386.217651,537.822327 
	C391.491119,550.766174 396.008820,564.032410 402.869019,576.675964 
	C398.643097,577.000000 394.286194,577.000000 389.708191,576.720337 
	C391.581848,573.560730 391.143982,570.454224 390.157410,567.382202 
	C385.722595,553.573181 379.881317,540.396057 372.843231,527.696228 
	C365.056946,513.646118 355.296722,501.405731 341.925323,492.336304 
	C335.944214,488.279419 330.598114,483.668884 326.146393,477.939606 
	C322.471710,473.210358 318.693298,468.492188 314.025513,464.697906 
	C312.192047,463.207642 309.129974,460.437256 307.598846,464.529602 
	C305.542664,470.025299 301.602905,470.469208 296.843658,470.406586 
	C292.384796,470.347870 288.376221,468.839264 284.353271,467.207916 
	C272.160828,462.263794 260.420776,456.422485 248.690781,450.446442 
	C230.063690,440.956665 212.327057,430.319794 196.379456,416.737671 
	C185.723999,407.662689 185.777054,407.869904 179.219086,420.559784 
	C171.731018,435.049408 163.080551,448.879822 154.230225,462.564056 
	C149.624054,469.686066 144.763992,476.690002 139.475723,483.313843 
	C131.710526,493.040192 131.651108,504.517883 130.935043,515.975037 
	C130.091522,529.471313 127.182785,542.035217 114.723381,550.080200 
	C113.688133,550.748718 113.102684,552.144531 112.367592,553.242126 
	C107.939857,559.853699 109.805206,567.839905 107.715080,574.974121 
	C107.566742,575.480469 108.545372,576.317017 108.999992,577.000000 
	C104.975456,577.000000 100.950912,577.000000 96.463181,577.000000 
M333.399506,118.951363 
	C333.133972,114.454613 331.022858,112.702232 326.712067,114.066727 
	C322.319519,115.457115 317.737396,116.771339 314.786377,120.817612 
	C313.636353,122.394493 312.173248,123.054878 310.144623,123.189552 
	C304.093506,123.591278 300.991394,127.318810 301.227234,133.334488 
	C301.295685,135.079285 302.377960,136.908646 300.572113,139.132431 
	C295.128265,137.451263 288.375458,131.375565 284.416351,141.169785 
	C282.719330,145.367950 284.711639,150.227661 288.100281,152.029846 
	C290.576569,146.047913 290.643402,146.025345 296.591187,149.100998 
	C297.918427,149.787323 299.204926,150.576248 300.584778,151.133133 
	C308.704803,154.410172 312.381836,152.470032 313.902435,143.917419 
	C314.402740,141.103333 315.456451,139.929794 318.512299,140.202805 
	C324.317444,140.721405 328.121765,137.058014 327.632538,131.391632 
	C327.441406,129.177475 327.766846,127.541924 329.323425,126.023254 
	C331.147217,124.243866 332.050232,121.879250 333.399506,118.951363 
M259.120636,160.048538 
	C256.510132,157.353577 255.880966,159.540482 255.234192,161.635193 
	C254.873871,162.802200 254.402283,163.886978 252.965775,163.904053 
	C251.572556,163.920639 251.020233,162.839142 250.467087,161.785416 
	C249.308441,159.578201 248.337982,157.233398 246.910156,155.213821 
	C243.201645,149.968277 239.175262,149.692337 234.546265,154.182816 
	C233.338516,155.354416 232.037415,157.085602 230.334213,156.044693 
	C225.204407,152.909561 221.069717,156.005539 216.720627,157.815536 
	C211.720245,159.896545 211.004364,163.691147 215.532852,166.683868 
	C222.702667,171.422165 231.326248,171.165680 239.110641,170.058044 
	C242.948837,169.511917 245.066925,169.415817 247.562027,171.942902 
	C250.100327,174.513748 252.353241,174.786880 255.823135,172.546951 
	C260.817932,169.322647 259.984467,165.176834 259.120636,160.048538 
M406.263641,227.746155 
	C407.100311,225.043381 407.471436,222.368210 405.979187,219.524521 
	C403.661041,220.068451 401.732147,221.061737 401.534546,223.209259 
	C401.288330,225.884705 403.427246,227.182022 406.263641,227.746155 
z"/>
<path fill="#000000" opacity="1.000000" stroke="none" 
	d="
M241.428467,577.000000 
	C235.905594,558.898438 231.417999,540.658813 227.599213,522.234802 
	C225.486176,512.040344 223.809616,501.497833 216.277832,493.300751 
	C215.036301,491.949493 214.261948,489.866638 216.235825,488.455872 
	C218.186874,487.061432 219.038483,489.069946 220.199707,490.208282 
	C232.693268,502.455322 233.561798,519.043945 236.823105,534.719666 
	C237.363876,537.318848 237.660751,539.950134 239.208435,543.301086 
	C240.603989,539.506287 241.038559,536.435913 240.191406,533.236877 
	C237.890045,524.546326 235.498291,515.879700 233.206879,507.186615 
	C232.492432,504.476105 231.409286,501.758545 232.539185,498.879791 
	C232.917999,497.914642 233.413406,496.960205 234.519501,496.851959 
	C235.926743,496.714294 236.740402,497.745270 236.930435,498.931030 
	C239.187866,513.016357 246.067139,526.173035 245.306290,540.870605 
	C245.098007,544.893921 244.643280,548.796143 243.026093,552.557495 
	C240.468445,558.506470 244.046768,563.928711 244.811432,569.588562 
	C245.119919,571.872070 246.060806,574.070068 246.856934,576.653503 
	C245.285645,577.000000 243.571289,577.000000 241.428467,577.000000 
z"/>
<path fill="#000000" opacity="1.000000" stroke="none" 
	d="
M361.428467,577.000000 
	C359.779297,571.655334 358.518188,566.319580 357.345551,560.964417 
	C353.930481,545.368774 350.552734,529.764954 347.153900,514.165771 
	C346.867157,512.849731 346.436981,511.469849 347.908661,510.599487 
	C349.105957,509.891327 350.120361,510.690979 351.141571,511.248108 
	C354.566833,513.116760 356.641998,515.443359 356.508728,519.893555 
	C356.248016,528.601562 359.202118,536.921143 360.634338,545.428040 
	C362.372925,555.754517 364.849121,565.956848 367.003082,576.606445 
	C365.285645,577.000000 363.571289,577.000000 361.428467,577.000000 
z"/>
<path fill="#000000" opacity="1.000000" stroke="none" 
	d="
M261.183868,243.217896 
	C267.381287,236.774536 273.851868,231.402832 282.469513,229.288330 
	C283.658936,228.996506 285.444580,228.894196 285.398682,227.113052 
	C285.286835,222.773895 288.260803,222.640228 291.159027,222.994034 
	C296.908417,223.695892 302.840088,223.439926 308.315704,225.738953 
	C309.909576,226.408188 312.273163,227.082932 311.450714,229.456375 
	C310.680298,231.679596 308.555725,230.481674 307.089752,230.121506 
	C304.344177,229.446976 301.634186,228.719437 297.904602,228.793365 
	C302.953949,231.786560 307.330566,234.368042 311.693542,236.972336 
	C314.171814,238.451630 316.174194,240.401657 317.527893,242.986099 
	C318.304657,244.468994 319.466949,246.125366 317.729187,247.456070 
	C315.942993,248.823868 314.534363,247.368759 313.620789,245.962372 
	C310.039703,240.449570 304.181152,238.359360 297.517578,234.738281 
	C302.353027,243.531677 301.771576,251.419312 299.148376,259.309479 
	C297.657684,263.793243 295.388489,267.823181 291.580261,270.817780 
	C284.671143,276.250763 276.470001,273.638580 271.296753,266.499390 
	C265.739288,258.829987 268.885681,252.054047 270.764923,244.815125 
	C271.160767,243.290298 272.564728,242.035461 271.919800,239.616272 
	C261.999023,247.560791 256.296234,257.495239 254.726822,269.643280 
	C254.252930,273.311554 255.957718,276.757141 258.866730,279.437683 
	C260.043396,280.521912 261.396942,282.200195 259.631927,283.693329 
	C258.235443,284.874695 256.866669,283.558685 255.678070,282.623230 
	C249.086121,277.435059 248.661377,270.490417 250.496078,263.170685 
	C252.343353,255.800735 256.163971,249.357101 261.183868,243.217896 
z"/>
<path fill="#000000" opacity="1.000000" stroke="none" 
	d="
M395.011292,269.370789 
	C394.500946,284.944672 387.719421,295.114014 375.733154,298.748322 
	C368.611725,300.907593 360.120148,294.870880 359.713898,287.491699 
	C359.483673,283.310425 360.360992,279.273529 361.262177,274.522491 
	C357.979187,276.524353 357.447510,279.702972 355.629944,281.876038 
	C354.469635,283.263275 353.216248,285.321899 351.214600,284.077728 
	C348.923340,282.653595 350.768951,280.789368 351.689026,279.374359 
	C357.960022,269.730469 365.464172,261.461487 376.468811,256.994690 
	C380.733582,255.263596 385.161041,255.011810 390.259186,254.700836 
	C385.431000,252.591660 381.300232,253.048431 377.253113,255.113281 
	C373.257172,257.152008 369.310242,259.286713 365.314575,261.325989 
	C364.278351,261.854828 363.100952,262.316040 362.091858,261.255707 
	C361.230713,260.350891 361.644379,259.439789 362.263611,258.572449 
	C367.766998,250.863510 384.866272,246.267715 393.589691,250.166702 
	C394.964874,250.781372 396.954163,251.472748 397.014832,252.817657 
	C397.193390,256.773315 400.221161,258.251984 402.614227,260.366577 
	C404.004242,261.594818 405.723755,263.114166 404.312775,264.978546 
	C402.602386,267.238586 401.096558,265.060760 399.780060,264.006042 
	C397.385620,262.087769 394.697784,260.977783 391.006958,260.396698 
	C392.888214,263.340240 394.890717,265.768250 395.011292,269.370789 
z"/>
<path fill="#000000" opacity="1.000000" stroke="none" 
	d="
M305.753571,330.565186 
	C304.050232,329.984863 302.871582,328.833435 300.430664,329.382935 
	C303.315887,331.060211 305.691040,332.401306 308.024506,333.811310 
	C309.584015,334.753723 311.715454,335.851013 310.419434,337.958069 
	C309.249939,339.859344 307.453278,338.369904 306.049805,337.560242 
	C303.890930,336.314789 301.767334,335.008087 298.608032,333.116058 
	C302.637909,339.596069 310.792908,339.371155 314.036407,344.937683 
	C313.353882,345.736786 313.259460,345.956573 313.141113,345.970306 
	C306.480347,346.743286 292.057709,336.323700 291.016876,330.001770 
	C290.124268,324.580078 293.771057,321.545380 299.142487,323.296967 
	C308.626587,326.389679 317.645416,330.865356 327.456116,332.972961 
	C332.824799,334.126343 338.279999,334.919647 343.357910,337.141876 
	C347.293884,338.864380 351.050446,340.959015 350.945251,345.976807 
	C350.880066,349.086304 344.560455,353.041992 340.029938,353.304779 
	C333.807709,353.665710 327.702759,352.998718 321.832977,350.936646 
	C319.754852,350.206573 317.260254,349.802124 316.015411,347.251953 
	C317.478943,344.221802 319.793243,345.419006 321.947540,346.040192 
	C327.860901,347.745178 333.771027,349.448456 340.186249,347.873962 
	C337.553802,347.469727 334.899109,347.170898 332.297089,346.622314 
	C330.699493,346.285553 328.692841,345.761597 329.365417,343.480194 
	C329.899780,341.667694 331.684113,341.855682 333.190063,342.172150 
	C336.558746,342.880127 339.882263,343.948273 343.548798,342.863739 
	C331.202942,338.314056 318.001709,336.413757 305.753571,330.565186 
z"/>
<path fill="#000000" opacity="1.000000" stroke="none" 
	d="
M341.485046,265.729858 
	C343.988464,256.736053 350.127289,251.745224 357.980988,248.439423 
	C359.540344,247.783035 361.461639,247.114807 362.421783,248.989151 
	C363.547302,251.186447 361.286316,251.807663 359.930664,252.492477 
	C354.357391,255.307892 349.238953,258.303772 347.069763,264.882599 
	C344.204742,273.571869 343.604736,284.574463 346.387695,292.595276 
	C350.410706,289.593170 352.516357,291.353394 353.494720,295.574982 
	C354.959229,301.894562 359.931610,304.422943 365.264221,306.738129 
	C369.386292,308.527740 374.116394,309.059296 377.957855,312.082550 
	C372.306488,316.549042 359.722656,311.262909 348.420776,300.004089 
	C346.216675,312.504242 335.421478,313.983856 326.362885,317.686798 
	C324.912903,318.279510 323.184753,318.367462 322.388458,316.757599 
	C321.344330,314.646759 323.207031,313.681946 324.659058,313.058441 
	C328.321991,311.485535 332.123444,310.238129 335.807159,308.710144 
	C340.927216,306.586395 342.994537,302.628204 341.315216,297.516327 
	C337.862549,287.006592 338.866943,276.577820 341.485046,265.729858 
z"/>
<path fill="#000000" opacity="1.000000" stroke="none" 
	d="
M405.393829,294.393616 
	C402.028442,304.484344 395.957764,311.553192 386.139404,315.106750 
	C385.202789,315.445740 384.295105,315.941986 383.329895,316.106628 
	C381.872650,316.355225 380.089020,316.724243 379.408020,314.937408 
	C378.645569,312.936981 380.486664,312.259064 381.817596,311.851318 
	C396.489471,307.356964 400.218170,295.266602 402.527252,282.184174 
	C402.728180,281.045685 403.070526,279.671417 402.642181,278.726044 
	C400.315887,273.591431 404.999268,270.980164 406.879822,267.628571 
	C408.275940,265.140289 411.326721,266.858093 411.664978,269.156342 
	C412.641815,275.792816 414.232452,282.659241 408.857513,288.524139 
	C407.435638,290.075653 406.628662,292.190674 405.393829,294.393616 
z"/>
<path fill="#000000" opacity="1.000000" stroke="none" 
	d="
M296.459656,281.546417 
	C306.213928,275.107269 311.836182,266.525391 312.799072,255.106873 
	C312.958099,253.221115 313.124359,250.984299 315.510345,251.086853 
	C318.158813,251.200668 318.341064,253.667740 318.172485,255.662842 
	C317.104767,268.297974 310.778412,277.934814 300.553558,284.986481 
	C295.167999,288.700653 289.094910,291.125885 282.356018,291.118866 
	C280.561127,291.116974 278.212585,291.152954 278.145355,288.702423 
	C278.086945,286.572540 280.391235,286.488403 281.932037,286.204376 
	C286.862091,285.295654 291.749054,284.321259 296.459656,281.546417 
z"/>
<path fill="#000000" opacity="1.000000" stroke="none" 
	d="
M202.453735,272.607727 
	C204.347534,273.691772 207.513138,273.624390 206.429611,276.401733 
	C205.377319,279.099060 202.653259,278.621185 200.393494,277.562317 
	C195.489029,275.264252 193.627701,267.161560 196.956558,262.847809 
	C199.726303,259.258575 203.380249,259.861053 205.532135,264.261749 
	C199.515030,266.991150 199.515030,266.991150 202.453735,272.607727 
z"/>
<path fill="#000000" opacity="1.000000" stroke="none" 
	d="
M267.653503,228.041443 
	C262.289001,231.566391 258.566833,236.175186 255.191452,241.157013 
	C254.238098,242.564087 252.986877,244.806290 250.929199,243.449356 
	C248.802521,242.046936 250.536911,240.164261 251.449249,238.693832 
	C254.526306,233.734589 258.023376,229.090027 262.873688,225.718994 
	C265.951965,223.579590 267.294373,224.233841 267.653503,228.041443 
z"/>
<path fill="#000000" opacity="1.000000" stroke="none" 
	d="
M258.316101,293.666748 
	C255.000137,294.794830 252.149277,292.222595 248.915375,293.716858 
	C247.568680,294.339142 247.080307,292.371490 247.835083,290.926941 
	C249.656616,287.440765 258.021332,286.082794 260.544830,289.037445 
	C262.606812,291.451721 260.292786,292.436951 258.316101,293.666748 
z"/>
<path fill="#000000" opacity="1.000000" stroke="none" 
	d="
M392.575623,325.448669 
	C390.330261,326.315308 388.865265,324.318359 386.993439,324.735443 
	C385.589447,325.048279 384.220703,324.993896 383.960358,323.203705 
	C383.738464,321.677948 384.901031,320.875549 385.992432,320.073303 
	C388.970551,317.884277 391.639801,318.761078 394.000946,321.016724 
	C395.977814,322.905304 394.562866,324.206024 392.575623,325.448669 
z"/>
<path fill="#000000" opacity="1.000000" stroke="none" 
	d="
M247.648544,555.643127 
	C248.892960,548.951965 250.061386,542.673523 251.284805,536.099609 
	C254.775803,537.742615 254.259979,539.993958 254.100006,541.803955 
	C253.649368,546.902954 252.950821,551.982300 252.253098,557.056152 
	C251.951462,559.249695 252.126968,562.676941 249.035492,562.171875 
	C245.442261,561.584717 247.222366,558.347473 247.648544,555.643127 
z"/>
</svg>